<svg width="1200" height="900" viewBox="0 0 1200 900" xmlns="http://www.w3.org/2000/svg">
  <defs>
    <linearGradient id="bg" x1="0" y1="0" x2="1" y2="1">
      <stop offset="0" stop-color="#051018" />
      <stop offset="1" stop-color="#0C1F2A" />
    </linearGradient>
    <linearGradient id="accent" x1="0" y1="0" x2="1" y2="0">
      <stop offset="0" stop-color="#00A86B" />
      <stop offset="1" stop-color="#46D39B" />
    </linearGradient>
    <filter id="glow" x="-30%" y="-30%" width="160%" height="160%">
      <feGaussianBlur stdDeviation="6" result="blur" />
      <feMerge>
        <feMergeNode in="blur" />
        <feMergeNode in="SourceGraphic" />
      </feMerge>
    </filter>
  </defs>

  <rect x="40" y="40" width="1120" height="820" rx="36" fill="url(#bg)" />
  <rect x="40" y="40" width="1120" height="820" rx="36" fill="none" stroke="#1C3B4B" stroke-width="4" />

  <text x="550" y="120" text-anchor="middle" fill="#7FB2C9" font-size="30" font-family="Arial, Helvetica, sans-serif">
    Flux principal : API REST vers fournisseurs
  </text>

  <rect x="100" y="180" width="280" height="220" rx="20" fill="#102634" stroke="#2C5A72" stroke-width="3" />
  <rect x="136" y="222" width="205" height="18" rx="9" fill="#2E607A" />
  <rect x="136" y="260" width="165" height="14" rx="7" fill="#2E607A" />
  <rect x="136" y="290" width="185" height="14" rx="7" fill="#2E607A" />
  <rect x="136" y="320" width="140" height="14" rx="7" fill="#2E607A" />
  <text x="240" y="332" text-anchor="middle" fill="#BDE4F6" font-size="58" font-weight="700" font-family="Arial, Helvetica, sans-serif">API REST</text>

  <circle cx="930" cy="240" r="84" fill="#143145" stroke="#5EA8CF" stroke-width="4" />
  <circle cx="930" cy="450" r="84" fill="#143145" stroke="#5EA8CF" stroke-width="4" />
  <circle cx="930" cy="660" r="84" fill="#143145" stroke="#5EA8CF" stroke-width="4" />

  <text x="930" y="230" text-anchor="middle" fill="#D7EEFA" font-size="26" font-family="Arial, Helvetica, sans-serif">Fournisseur</text>
  <text x="930" y="266" text-anchor="middle" fill="#D7EEFA" font-size="44" font-weight="700" font-family="Arial, Helvetica, sans-serif">01</text>

  <text x="930" y="440" text-anchor="middle" fill="#D7EEFA" font-size="26" font-family="Arial, Helvetica, sans-serif">Fournisseur</text>
  <text x="930" y="476" text-anchor="middle" fill="#D7EEFA" font-size="44" font-weight="700" font-family="Arial, Helvetica, sans-serif">02</text>

  <text x="930" y="650" text-anchor="middle" fill="#D7EEFA" font-size="26" font-family="Arial, Helvetica, sans-serif">Fournisseur</text>
  <text x="930" y="686" text-anchor="middle" fill="#D7EEFA" font-size="44" font-weight="700" font-family="Arial, Helvetica, sans-serif">03</text>

  <line x1="380" y1="278" x2="846" y2="238" stroke="#5EA8CF" stroke-width="7" stroke-linecap="round" />
  <line x1="380" y1="292" x2="846" y2="450" stroke="#5EA8CF" stroke-width="7" stroke-linecap="round" />
  <line x1="380" y1="306" x2="846" y2="662" stroke="#5EA8CF" stroke-width="7" stroke-linecap="round" />

  <rect x="90" y="590" width="300" height="170" rx="24" fill="#0E2A27" stroke="url(#accent)" stroke-width="4" filter="url(#glow)" />
  <text x="240" y="670" text-anchor="middle" fill="#D8FFE8" font-size="62" font-weight="700" font-family="Arial, Helvetica, sans-serif">B2B</text>
  <text x="240" y="715" text-anchor="middle" fill="#9EEEC8" font-size="25" font-family="Arial, Helvetica, sans-serif">Business to Business</text>

  <text x="120" y="790" fill="#98C5DA" font-size="33" font-family="Arial, Helvetica, sans-serif">
    Integrations API REST vers fournisseurs + contexte B2B + documentation technique
  </text>
  <text x="120" y="833" fill="#7FB2C9" font-size="30" font-family="Arial, Helvetica, sans-serif">
    Parcours Desjardins
  </text>
</svg>
